# xmcd
#
# Track frame offsets: 
#        151
#        5957
#        12293
#        21356
#        32858
#        39254
#        46964
#        54762
#        64482
#        73516
#        84061
#        91996
#        101053
#        110321
#        118168
#        127449
#        138233
#        145416
#        152721
#        166432
#
# Disc length: 2284 seconds
#
# Revision: 0
# Processed by: cddbd v1.5.2PL0 Copyright (c) Steve Scherf et al.
# Submitted via: ExactAudioCopy v0.95b4
#
DISCID=1608ea14
DTITLE=Various Artist - Sound Traditions: The Golden Age of Bluegrass Traditi
DTITLE=onal Bluegrass and Mountain Style CD 2
DYEAR=2006
DGENRE=Bluegrass
TTITLE0=01 Go Along Mule - Hylo Brown
TTITLE1=02 Will You Be Lovin' Another Man - Roy Ross
TTITLE2=03 Broken Vows - Ernie and Mack
TTITLE3=04 Fallen Leaf - Red Smiley
TTITLE4=05 New Deal ( Don't Let Your Deal Go Down ) - Log Cabin Boys
TTITLE5=06 Great Historical Bum - Hylo Brown
TTITLE6=07 Worried Man Blues - Ernie and Mack
TTITLE7=08 Where were You When the Train Left Town - J.E. Mainer
TTITLE8=09 My Little Girl - Earl Taylor and Jim McCall
TTITLE9=10 Hell Among The Yearlings - Tater Tate
TTITLE10=11 Ain't We Crazy - Hylo Brown
TTITLE11=12 Gathering Flowers From The Hillside - James Wall
TTITLE12=13 Careless Love - Ernie and Mack
TTITLE13=14 Red Wing - Red Smiley
TTITLE14=15 Big Smoky - Red White
TTITLE15=16 Going Back To Coney Isle - Hylo Brown
TTITLE16=17 Snow Dear - Bobby Smith
TTITLE17=18 I Wonder How The Old Folks Are At Home - Ernie and Mack
TTITLE18=19 Patonia - Jim Greer
TTITLE19=20 Home Sweet Home - Hylo Brown
EXTD=
EXTT0=
EXTT1=
EXTT2=
EXTT3=
EXTT4=
EXTT5=
EXTT6=
EXTT7=
EXTT8=
EXTT9=
EXTT10=
EXTT11=
EXTT12=
EXTT13=
EXTT14=
EXTT15=
EXTT16=
EXTT17=
EXTT18=
EXTT19=
PLAYORDER=
